<?xml version="1.0" standalone="no"?>
<!DOCTYPE svg PUBLIC "-//W3C//DTD SVG 1.1//EN" "http://www.w3.org/Graphics/SVG/1.1/DTD/svg11.dtd" >
<svg xmlns="http://www.w3.org/2000/svg" xmlns:xlink="http://www.w3.org/1999/xlink" version="1.1">
<metadata>
Created by FontForge 20170924 at Wed Feb  4 07:25:42 2015
 By www-data
Copyright (c) 2015 by Nestor Delgado. All rights reserved.
</metadata>
<defs>
<font id="DAGGERSQUARE" horiz-adv-x="625" >
  <font-face 
    font-family="DAGGERSQUARE"
    font-weight="400"
    font-stretch="normal"
    units-per-em="1000"
    panose-1="0 0 0 0 0 0 0 0 0 0"
    ascent="800"
    descent="-200"
    x-height="583"
    cap-height="675"
    bbox="-152 -268 991 928"
    underline-thickness="50"
    underline-position="-100"
    unicode-range="U+000D-2212"
  />
<missing-glyph horiz-adv-x="300" 
 />
    <glyph glyph-name=".notdef" horiz-adv-x="300" 
 />
    <glyph glyph-name="NULL" horiz-adv-x="0" 
 />
    <glyph glyph-name="NULL" horiz-adv-x="0" 
 />
    <glyph glyph-name="CR" unicode="&#xd;" horiz-adv-x="300" 
 />
    <glyph glyph-name="space" unicode=" " horiz-adv-x="300" 
 />
    <glyph glyph-name="exclam" unicode="!" horiz-adv-x="258" 
d="M28 211l-28 539h163l-28 -539h-107zM148 0h-133v133h133v-133z" />
    <glyph glyph-name="quotedbl" unicode="&#x22;" horiz-adv-x="431" 
d="M132 512h-132v255h132v-255zM331 512h-133v255h133v-255z" />
    <glyph glyph-name="numbersign" unicode="#" horiz-adv-x="897" 
d="M762 378h-173l-24 -81h173l-40 -132h-173l-50 -165h-138l49 165h-84l-50 -165h-138l50 165h-164l40 132h163l24 81h-163l40 132h163l50 165h138l-49 -165h84l50 165h138l-50 -165h174zM426 297l24 81h-84l-24 -81h84z" />
    <glyph glyph-name="dollar" unicode="$" horiz-adv-x="626" 
d="M351 404c100 0 180 -81 180 -180v-44c0 -99 -80 -180 -180 -180h-19v-102h-133v102h-169v132h319c27 0 50 23 50 50v39c0 28 -23 50 -50 50h-169c-99 0 -180 81 -180 180v44c0 99 81 180 180 180h19v102h133v-102h145v-133h-295c-27 0 -50 -22 -50 -50v-38
c0 -28 23 -50 50 -50h169z" />
    <glyph glyph-name="percent" unicode="%" horiz-adv-x="736" 
d="M606 675l-451 -675h-121l452 675h120zM310 520c0 -86 -69 -156 -155 -156c-85 0 -155 70 -155 156c0 85 70 155 155 155c86 0 155 -70 155 -155zM210 520c0 30 -24 55 -55 55c-30 0 -55 -25 -55 -55c0 -31 25 -56 55 -56c31 0 55 25 55 56zM641 155
c0 -85 -70 -155 -156 -155c-85 0 -155 70 -155 155c0 86 70 155 155 155c86 0 156 -69 156 -155zM541 155c0 31 -25 55 -56 55c-30 0 -55 -24 -55 -55c0 -30 25 -55 55 -55c31 0 56 25 56 55z" />
    <glyph glyph-name="ampersand" unicode="&#x26;" horiz-adv-x="718" 
d="M251 271c-10 0 -19 1 -28 2v-2h28zM583 404l40 -133h-149v-271h-133v271h-90c-10 0 -19 1 -28 2v-2h-41c-27 0 -50 -22 -50 -50v-39c0 -27 23 -50 50 -50h79v-132h-81c-99 0 -180 81 -180 180v44c0 65 35 122 87 154c-10 22 -16 47 -16 73v44c0 99 81 180 180 180h43
c99 0 180 -81 180 -180v-91h109zM254 404h87v88c0 28 -22 50 -50 50h-37c-28 0 -50 -22 -50 -50v-38c0 -28 22 -50 50 -50zM251 271c-10 0 -19 1 -28 2v-2h28z" />
    <glyph glyph-name="quotesingle" unicode="'" horiz-adv-x="227" 
d="M132 512h-132v255h132v-255z" />
    <glyph glyph-name="parenleft" unicode="(" horiz-adv-x="335" 
d="M240 132v-132h-60c-99 0 -180 81 -180 180v415c0 99 81 180 180 180h60v-133h-58c-27 0 -50 -22 -50 -50v-410c0 -27 23 -50 50 -50h58z" />
    <glyph glyph-name="parenright" unicode=")" horiz-adv-x="335" 
d="M0 132h58c27 0 50 23 50 50v410c0 28 -23 50 -50 50h-58v133h60c99 0 180 -81 180 -180v-415c0 -99 -81 -180 -180 -180h-60v132z" />
    <glyph glyph-name="asterisk" unicode="*" horiz-adv-x="678" 
d="M583 271h-177l88 -153l-114 -66l-89 153l-88 -153l-114 66l88 153h-177v132h177l-88 154l114 66l88 -154l89 154l114 -66l-88 -154h177v-132z" />
    <glyph glyph-name="plus" unicode="+" horiz-adv-x="678" 
d="M583 357v-132h-226v-225h-132v225h-225v132h225v226h132v-226h226z" />
    <glyph glyph-name="comma" unicode="," horiz-adv-x="227" 
d="M132 132v-31c0 -35 -4 -68 -12 -101c-9 -37 -23 -72 -42 -105l-62 32c13 23 24 48 32 73h-48v132h132z" />
    <glyph glyph-name="hyphen" unicode="-" horiz-adv-x="471" 
d="M0 357h376v-132h-376v132z" />
    <glyph glyph-name="period" unicode="." horiz-adv-x="227" 
d="M0 132h132v-132h-132v132z" />
    <glyph glyph-name="slash" unicode="/" horiz-adv-x="661" 
d="M0 0l452 675h159l-452 -675h-159z" />
    <glyph glyph-name="zero" unicode="0" horiz-adv-x="595" 
d="M320 675c99 0 180 -81 180 -180v-315c0 -99 -81 -180 -180 -180h-140c-99 0 -180 81 -180 180v315c0 99 81 180 180 180h140zM367 182v310c0 28 -22 50 -50 50h-135c-27 0 -50 -22 -50 -50v-310c0 -27 23 -50 50 -50h135c28 0 50 23 50 50z" />
    <glyph glyph-name="one" unicode="1" horiz-adv-x="310" 
d="M215 675v-675h-133v542h-82l40 133h175z" />
    <glyph glyph-name="two" unicode="2" horiz-adv-x="645" 
d="M132 221v-89h418v-132h-550v224c0 99 81 180 180 180h187c28 0 50 22 50 50v38c0 28 -22 50 -50 50h-277l-40 133h320c99 0 180 -81 180 -180v-44c0 -99 -81 -180 -180 -180h-188c-27 0 -50 -22 -50 -50z" />
    <glyph glyph-name="three" unicode="3" horiz-adv-x="595" 
d="M500 244v-64c0 -99 -81 -180 -180 -180h-350l40 132h307c28 0 50 23 50 50v59c0 28 -22 50 -50 50h-192l145 251h-270v133h347v0h153l-147 -254c84 -16 147 -89 147 -177z" />
    <glyph glyph-name="four" unicode="4" horiz-adv-x="635" 
d="M555 265v-133h-112v-132h-133v132h-350l163 543h138l-123 -410h172v182h133v-182h112z" />
    <glyph glyph-name="five" unicode="5" horiz-adv-x="630" 
d="M550 224v-44c0 -99 -81 -180 -180 -180h-370l40 132h327c28 0 50 23 50 50v39c0 28 -22 50 -50 50h-187c-99 0 -180 81 -180 180v224h477l-40 -133h-305v-88c0 -28 23 -50 50 -50h188c99 0 180 -81 180 -180z" />
    <glyph glyph-name="six" unicode="6" horiz-adv-x="630" 
d="M370 404c99 0 180 -81 180 -180v-44c0 -99 -81 -180 -180 -180h-190c-99 0 -180 81 -180 180v315c0 99 81 180 180 180h277l-40 -133h-235c-27 0 -50 -22 -50 -50v-155l67 67h171zM417 182v39c0 28 -22 50 -50 50h-235v-89c0 -27 23 -50 50 -50h185c28 0 50 23 50 50z
" />
    <glyph glyph-name="seven" unicode="7" horiz-adv-x="572" 
d="M492 675l-203 -675h-138l162 542h-313v133h492z" />
    <glyph glyph-name="eight" unicode="8" horiz-adv-x="660" 
d="M517 361c38 -33 63 -82 63 -137v-44c0 -99 -81 -180 -180 -180h-220c-99 0 -180 81 -180 180v44c0 55 24 104 63 137v0c-15 26 -24 57 -24 90v44c0 99 80 180 180 180h142c100 0 180 -81 180 -180v-44c0 -33 -9 -64 -24 -90v0zM171 492v-38c0 -28 23 -50 50 -50h138
c27 0 50 22 50 50v38c0 28 -23 50 -50 50h-138c-27 0 -50 -22 -50 -50zM447 182v39c0 28 -22 50 -50 50h-215c-27 0 -50 -22 -50 -50v-39c0 -27 23 -50 50 -50h215c28 0 50 23 50 50z" />
    <glyph glyph-name="nine" unicode="9" horiz-adv-x="645" 
d="M370 675c99 0 180 -81 180 -180v-315c0 -99 -81 -180 -180 -180h-277l39 132h235c28 0 50 23 50 50v89h-237c-99 0 -180 81 -180 180v44c0 99 81 180 180 180h190zM417 337v155c0 28 -22 50 -50 50h-185c-27 0 -50 -22 -50 -50v-38c0 -28 23 -50 50 -50h169z" />
    <glyph glyph-name="colon" unicode=":" horiz-adv-x="227" 
d="M0 132h132v-132h-132v132zM0 582h132v-132h-132v132z" />
    <glyph glyph-name="semicolon" unicode=";" horiz-adv-x="227" 
d="M0 582h132v-132h-132v132zM132 132h-132v-132h48c-8 -25 -19 -50 -32 -73l62 -32c19 33 33 68 42 105c8 33 12 66 12 101v31z" />
    <glyph glyph-name="less" unicode="&#x3c;" horiz-adv-x="515" 
d="M420 675l-254 -338l254 -337h-166l-254 337l254 338h166z" />
    <glyph glyph-name="equal" unicode="=" horiz-adv-x="678" 
d="M0 501h583v-132h-583v132zM0 214h583v-132h-583v132z" />
    <glyph glyph-name="greater" unicode="&#x3e;" horiz-adv-x="515" 
d="M0 675h166l254 -338l-254 -337h-166l254 337z" />
    <glyph glyph-name="question" unicode="?" horiz-adv-x="564" 
d="M469 570v-44c0 -99 -81 -180 -180 -180h-56v-179h-132v312h186c27 0 50 22 50 50v39c0 27 -23 50 -50 50h-257l-40 132h299c99 0 180 -81 180 -180zM233 0v84l-132 40v-124h132z" />
    <glyph glyph-name="at" unicode="@" horiz-adv-x="757" 
d="M348 311v-39c0 -15 11 -27 26 -27h155v292c0 14 -11 26 -26 26h-344c-15 0 -27 -12 -27 -26v-491c0 -14 12 -26 27 -26h463l40 -133h-530c-73 0 -132 60 -132 133v543c0 73 59 133 132 133h397c74 0 133 -60 133 -133v-450h-314c-74 0 -133 59 -133 132v93
c0 73 59 132 133 132h120l-40 -132h-54c-15 0 -26 -12 -26 -27z" />
    <glyph glyph-name="A" unicode="A" horiz-adv-x="645" 
d="M550 495v-495h-133v203h-235l40 133h195v156c0 28 -22 50 -50 50h-185c-27 0 -50 -22 -50 -50v-492h-132v495c0 99 81 180 180 180h190c99 0 180 -81 180 -180z" />
    <glyph glyph-name="B" unicode="B" 
d="M475 370c45 -32 75 -86 75 -146v-44c0 -99 -81 -180 -180 -180h-370v675h323c99 0 180 -81 180 -180v-22c0 -37 -11 -73 -28 -103zM417 182v39c0 28 -22 50 -50 50h-142l-40 133h135c28 0 50 22 50 50v38c0 28 -22 50 -50 50h-188v-410h235c28 0 50 23 50 50z" />
    <glyph glyph-name="C" unicode="C" horiz-adv-x="541" 
d="M182 132h279v-132h-281c-99 0 -180 81 -180 180v315c0 99 81 180 180 180h281l-40 -133h-239c-27 0 -50 -22 -50 -50v-310c0 -27 23 -50 50 -50z" />
    <glyph glyph-name="D" unicode="D" horiz-adv-x="613" 
d="M338 675c99 0 180 -81 180 -180v-315c0 -99 -81 -180 -180 -180h-338v675h338zM385 182v310c0 28 -22 50 -50 50h-203v-344l-65 -66h268c28 0 50 23 50 50z" />
    <glyph glyph-name="E" unicode="E" horiz-adv-x="565" 
d="M199 404h271v-133h-338v-89c0 -27 23 -50 50 -50h288v-132h-290c-99 0 -180 81 -180 180v315c0 99 81 180 180 180h290l-40 -133h-248c-27 0 -50 -22 -50 -50v-155z" />
    <glyph glyph-name="F" unicode="F" horiz-adv-x="530" 
d="M132 337l67 67h217v-133h-284v-271h-132v495c0 99 81 180 180 180h290l-40 -133h-248c-27 0 -50 -22 -50 -50v-155z" />
    <glyph glyph-name="G" unicode="G" horiz-adv-x="645" 
d="M550 404v-224c0 -99 -81 -180 -180 -180h-190c-99 0 -180 81 -180 180v315c0 99 81 180 180 180h290l-40 -133h-248c-27 0 -50 -22 -50 -50v-310c0 -27 23 -50 50 -50h185c28 0 50 23 50 50v89h-132l-40 133h305z" />
    <glyph glyph-name="H" unicode="H" horiz-adv-x="595" 
d="M500 675v-675h-133v271h-235v-271h-132v675h132v-338l67 67h168v271h133z" />
    <glyph glyph-name="I" unicode="I" horiz-adv-x="227" 
d="M132 0h-132v675h132v-675z" />
    <glyph glyph-name="J" unicode="J" horiz-adv-x="458" 
d="M363 675v-495c0 -99 -81 -180 -180 -180h-220l39 132h178c28 0 50 23 50 50v360h-92l39 133h186z" />
    <glyph glyph-name="K" unicode="K" horiz-adv-x="593" 
d="M0 675h132v-675h-132v675zM553 675l-255 -338l255 -337h-166l-255 337l255 338h166z" />
    <glyph glyph-name="L" unicode="L" horiz-adv-x="476" 
d="M426 0h-246c-99 0 -180 81 -180 180v495h132v-493c0 -27 23 -50 50 -50h204z" />
    <glyph glyph-name="M" unicode="M" horiz-adv-x="713" 
d="M486 675h132v-675h-132v420l-126 -207h-102l-126 207v-420h-132v675h132v0l177 -291l177 291v0z" />
    <glyph glyph-name="N" unicode="N" horiz-adv-x="615" 
d="M520 37v0v-37h-133v0v0v0l-255 420v0v-420h-132v675h132v0v0v0l255 -420v420h133v-638z" />
    <glyph glyph-name="O" unicode="O" 
d="M350 675c99 0 180 -81 180 -180v-315c0 -99 -81 -180 -180 -180h-170c-99 0 -180 81 -180 180v315c0 99 81 180 180 180h170zM397 182v310c0 28 -22 50 -50 50h-165c-27 0 -50 -22 -50 -50v-310c0 -27 23 -50 50 -50h165c28 0 50 23 50 50z" />
    <glyph glyph-name="P" unicode="P" horiz-adv-x="640" 
d="M550 383v-3v0v3zM550 498v0v-3v3zM550 495v-112v-3c-2 -98 -82 -177 -180 -177h-186l40 133h143c28 0 50 22 50 50v106c0 28 -22 50 -50 50h-235v-542h-132v675h370c98 0 178 -79 180 -177v-3z" />
    <glyph glyph-name="Q" unicode="Q" 
d="M530 495v-315c0 -76 -47 -141 -114 -167l28 -91h-139l-86 289h138l20 -69c13 10 20 24 20 40v310c0 28 -22 50 -50 50h-165c-27 0 -50 -22 -50 -50v-310c0 -27 23 -50 50 -50h30v-132h-32c-99 0 -180 81 -180 180v315c0 99 81 180 180 180h170c99 0 180 -81 180 -180z
" />
    <glyph glyph-name="R" unicode="R" horiz-adv-x="651" 
d="M550 383v-3v0v3zM550 498v0v-3v3zM571 0h-153l-117 203h-117l40 133h143c28 0 50 22 50 50v106c0 28 -22 50 -50 50h-235v-542h-132v675h370c98 0 178 -79 180 -177v-3v-112v-3c-1 -71 -44 -133 -106 -161z" />
    <glyph glyph-name="S" unicode="S" horiz-adv-x="620" 
d="M550 224v-44c0 -99 -81 -180 -180 -180h-370l40 132h327c28 0 50 23 50 50v39c0 28 -22 50 -50 50h-187c-99 0 -180 81 -180 180v44c0 99 81 180 180 180h320l-40 -133h-278c-27 0 -50 -22 -50 -50v-38c0 -28 23 -50 50 -50h188c99 0 180 -81 180 -180z" />
    <glyph glyph-name="T" unicode="T" horiz-adv-x="560" 
d="M490 675v-133h-194v-542h-132v476l66 66h-260v133h520z" />
    <glyph glyph-name="U" unicode="U" horiz-adv-x="595" 
d="M500 675v-495c0 -99 -81 -180 -180 -180h-140c-99 0 -180 81 -180 180v495h132v-493c0 -27 23 -50 50 -50h135c28 0 50 23 50 50v493h133z" />
    <glyph glyph-name="V" unicode="V" horiz-adv-x="597" 
d="M385 675h137l-181 -675h-200l-181 675h137l144 -537z" />
    <glyph glyph-name="W" unicode="W" horiz-adv-x="841" 
d="M611 675h135l-144 -675h-160l-79 387l-78 -387h-160l-145 675h135l90 -416l89 416h3h132h4l89 -416z" />
    <glyph glyph-name="X" unicode="X" horiz-adv-x="631" 
d="M571 0h-159l-147 218l-146 -218h-159l226 337l-226 338h159l146 -218l147 218h159l-182 -271h-88z" />
    <glyph glyph-name="Y" unicode="Y" horiz-adv-x="611" 
d="M561 675l-239 -358v-317h-133v358l31 46h-89l-181 271h159l146 -218l147 218h159z" />
    <glyph glyph-name="Z" unicode="Z" 
d="M530 542l-355 -410h355v-132h-530v132v0l355 410h-355l40 133h490v-133v0z" />
    <glyph glyph-name="bracketleft" unicode="[" horiz-adv-x="363" 
d="M268 66v-132h-268v907h268v-132h-136v-643h136z" />
    <glyph glyph-name="backslash" unicode="\" horiz-adv-x="661" 
d="M611 0h-159l-452 675h159z" />
    <glyph glyph-name="bracketright" unicode="]" horiz-adv-x="363" 
d="M136 709h-136v132h268v-907h-268v132h136v643z" />
    <glyph glyph-name="asciicircum" unicode="^" horiz-adv-x="509" 
d="M275 904l139 -178h-168l-37 47l-37 -47h-169l140 178h132z" />
    <glyph glyph-name="underscore" unicode="_" horiz-adv-x="678" 
d="M0 132h583v-132h-583v132z" />
    <glyph glyph-name="grave" unicode="`" horiz-adv-x="380" 
d="M285 634h-100l-185 185h188z" />
    <glyph glyph-name="a" unicode="a" 
d="M530 450v-450h-133v66l-66 -66h-199c-73 0 -132 59 -132 132v93c0 73 59 133 132 133h177l39 -133h-189c-15 0 -27 -12 -27 -26v-40c0 -15 12 -27 27 -27h238v292c0 15 -11 26 -26 26h-318l40 133h304c74 0 133 -59 133 -133z" />
    <glyph glyph-name="b" unicode="b" 
d="M530 450v-318c0 -73 -59 -132 -133 -132h-198l-67 66v-66h-132v750h132v-618h239c15 0 26 12 26 27v265c0 15 -11 26 -26 26h-198l40 133h184c74 0 133 -59 133 -133z" />
    <glyph glyph-name="c" unicode="c" horiz-adv-x="530" 
d="M440 132v-132h-308c-73 0 -132 59 -132 132v318c0 74 59 133 132 133h308l-40 -133h-241c-15 0 -27 -11 -27 -26v-265c0 -15 12 -27 27 -27h281z" />
    <glyph glyph-name="d" unicode="d" 
d="M530 750v-750h-133v66l-66 -66h-199c-73 0 -132 59 -132 132v318c0 74 59 133 132 133h185l40 -133h-198c-15 0 -27 -11 -27 -26v-265c0 -15 12 -27 27 -27h238v618h133z" />
    <glyph glyph-name="e" unicode="e" 
d="M397 358v66c0 15 -11 26 -26 26h-212c-15 0 -27 -11 -27 -26v-265c0 -15 12 -27 27 -27h344l-39 -132h-332c-73 0 -132 59 -132 132v318c0 74 59 133 132 133h265c74 0 133 -59 133 -133v-225h-331l40 133h158z" />
    <glyph glyph-name="f" unicode="f" horiz-adv-x="422" 
d="M199 490h132v-132h-199v-358h-132v617c0 74 59 133 132 133h225l-40 -133h-158c-15 0 -27 -11 -27 -26v-167z" />
    <glyph glyph-name="g" unicode="g" 
d="M530 583v-482c0 -78 -23 -152 -67 -216l-2 -3l-2 -3l-84 -100l-94 94l75 89c27 41 41 89 41 139v349h-238c-15 0 -27 -11 -27 -26v-265c0 -15 12 -27 27 -27h198l-40 -132h-185c-73 0 -132 59 -132 132v318c0 74 59 133 132 133h199l66 -66v66h133z" />
    <glyph glyph-name="h" unicode="h" horiz-adv-x="595" 
d="M500 450v-450h-133v424c0 15 -11 26 -26 26h-209v-450h-132v750h132v-233l67 66h168c74 0 133 -59 133 -133z" />
    <glyph glyph-name="i" unicode="i" horiz-adv-x="227" 
d="M0 0h132v583h-132v-583zM0 750h132v-84l-132 -40v124z" />
    <glyph glyph-name="j" unicode="j" horiz-adv-x="244" 
d="M149 750v-84l-133 -40v124h133zM16 583h133v-482c0 -78 -23 -152 -67 -216l-2 -3l-2 -3l-84 -100l-94 94l74 89c28 41 42 89 42 139v482z" />
    <glyph glyph-name="k" unicode="k" horiz-adv-x="581" 
d="M302 291l229 292h-169l-228 -292l228 -291h169zM0 0v750h132v-750h-132z" />
    <glyph glyph-name="l" unicode="l" horiz-adv-x="227" 
d="M132 0h-132v750h132v-750z" />
    <glyph glyph-name="m" unicode="m" horiz-adv-x="962" 
d="M867 450v-450h-132v424c0 15 -12 26 -27 26h-208v-450h-133v424c0 15 -11 26 -26 26h-209v-450h-132v583h132v-66l67 66h168c54 0 100 -32 121 -78l78 78h169c73 0 132 -59 132 -133z" />
    <glyph glyph-name="n" unicode="n" horiz-adv-x="595" 
d="M500 450v-450h-133v424c0 15 -11 26 -26 26h-209v-450h-132v583h132v-66l67 66h168c74 0 133 -59 133 -133z" />
    <glyph glyph-name="o" unicode="o" 
d="M397 583c74 0 133 -59 133 -133v-318c0 -73 -59 -132 -133 -132h-265c-73 0 -132 59 -132 132v318c0 74 59 133 132 133h265zM397 159v265c0 15 -11 26 -26 26h-212c-15 0 -27 -11 -27 -26v-265c0 -15 12 -27 27 -27h212c15 0 26 12 26 27z" />
    <glyph glyph-name="p" unicode="p" 
d="M530 450v-318c0 -73 -59 -132 -133 -132h-184l-40 132h198c15 0 26 12 26 27v265c0 15 -11 26 -26 26h-239v-617h-132v750h132v-66l67 66h198c74 0 133 -59 133 -133z" />
    <glyph glyph-name="q" unicode="q" 
d="M530 583v-750h-133v617h-238c-15 0 -27 -11 -27 -26v-265c0 -15 12 -27 27 -27h198l-40 -132h-185c-73 0 -132 59 -132 132v318c0 74 59 133 132 133h199l66 -66v66h133z" />
    <glyph glyph-name="r" unicode="r" horiz-adv-x="375" 
d="M315 583l-39 -133h-117c-15 0 -27 -11 -27 -26v-424h-132v583h132v-66l67 66h116z" />
    <glyph glyph-name="s" unicode="s" horiz-adv-x="620" 
d="M530 225v-93c0 -73 -59 -132 -133 -132h-397l40 132h331c15 0 26 12 26 27v40c0 14 -11 26 -26 26h-239c-73 0 -132 60 -132 133v92c0 74 59 133 132 133h358l-40 -133h-291c-15 0 -27 -11 -27 -26v-40c0 -14 12 -26 27 -26h238c74 0 133 -60 133 -133z" />
    <glyph glyph-name="t" unicode="t" horiz-adv-x="399" 
d="M159 132h160v-132h-187c-73 0 -132 59 -132 132v583h132v-132h187l-40 -133h-147v-291c0 -15 12 -27 27 -27z" />
    <glyph glyph-name="u" unicode="u" horiz-adv-x="595" 
d="M367 583h133v-451c0 -73 -59 -132 -133 -132h-235c-73 0 -132 59 -132 132v451h132v-424c0 -15 12 -27 27 -27h182c15 0 26 12 26 27v424z" />
    <glyph glyph-name="v" unicode="v" horiz-adv-x="575" 
d="M367 583h148l-175 -583h-200l-175 583h148l127 -446z" />
    <glyph glyph-name="w" unicode="w" horiz-adv-x="872" 
d="M655 583h137l-159 -583h-159l-93 359l-93 -359h-159l-159 583h137l102 -372l101 372h5v0h137l101 -372z" />
    <glyph glyph-name="x" unicode="x" horiz-adv-x="612" 
d="M542 0h-163l-126 177l-126 -177h-162l207 291l-207 292h162l126 -177l126 177h163l-160 -225h-94z" />
    <glyph glyph-name="y" unicode="y" horiz-adv-x="560" 
d="M510 583l-225 -750h-138l50 167h-62l-175 583h138l137 -456l137 456h138z" />
    <glyph glyph-name="z" unicode="z" horiz-adv-x="555" 
d="M460 450l-283 -318h283v-132h-460v132v0l283 318h-283l40 133h420v-128v-5v0z" />
    <glyph glyph-name="braceleft" unicode="{" horiz-adv-x="425" 
d="M209 501c0 -43 -15 -83 -41 -114c26 -31 41 -70 41 -113v-158c0 -27 22 -50 50 -50h71v-132h-74c-99 0 -180 80 -180 180v157c0 28 -22 50 -50 50h-26v133h26c28 0 50 22 50 50v157c0 100 81 180 180 180h74v-132h-71c-28 0 -50 -23 -50 -50v-158z" />
    <glyph glyph-name="bar" unicode="|" horiz-adv-x="227" 
d="M132 -66h-132v907h132v-907z" />
    <glyph glyph-name="braceright" unicode="}" horiz-adv-x="425" 
d="M121 501v158c0 27 -22 50 -50 50h-71v132h74c99 0 180 -80 180 -180v-157c0 -28 22 -50 50 -50h26v-133h-26c-28 0 -50 -22 -50 -50v-157c0 -100 -81 -180 -180 -180h-74v132h71c28 0 50 23 50 50v158c0 43 15 82 41 113c-26 31 -41 71 -41 114z" />
    <glyph glyph-name="asciitilde" unicode="~" horiz-adv-x="458" 
d="M309 871l54 -83l-48 -31c-27 -18 -61 -24 -93 -18l-111 23l-56 -36l-54 84l47 30c28 18 61 25 93 18l111 -23z" />
    <glyph glyph-name="exclamdown" unicode="&#xa1;" horiz-adv-x="258" 
d="M0 0h163l-28 539h-107zM148 750v-133h-133v133h133z" />
    <glyph glyph-name="sterling" unicode="&#xa3;" horiz-adv-x="563" 
d="M468 0h-260c-100 0 -180 81 -180 180v91h-48v133h48v91c0 99 80 180 180 180h10c95 0 173 -74 179 -168h-134c-6 21 -25 35 -48 35h-5c-27 0 -50 -22 -50 -50v-88h122v-133h-122v-89c0 -27 23 -50 50 -50h218z" />
    <glyph glyph-name="dieresis" unicode="&#xa8;" horiz-adv-x="425" 
d="M132 634h-132v133h132v-133zM330 634h-132v133h132v-133z" />
    <glyph glyph-name="copyright" unicode="&#xa9;" horiz-adv-x="732" 
d="M250 415v-155c0 -14 11 -25 25 -25h148v-66h-150c-49 0 -90 40 -90 90v157c0 50 41 90 90 90h150l-20 -66h-128c-14 0 -25 -11 -25 -25zM637 337c0 -85 -33 -165 -94 -225c-60 -60 -140 -93 -225 -93s-165 33 -225 93s-93 140 -93 225s33 165 93 226c60 60 140 93 225 93
s165 -33 225 -93c61 -61 94 -141 94 -226zM570 337c0 139 -113 253 -252 253s-252 -114 -252 -253s113 -252 252 -252s252 113 252 252z" />
    <glyph glyph-name="guillemotleft" unicode="&#xab;" horiz-adv-x="823" 
d="M420 675l-254 -338l254 -337h-166l-254 337l254 338h166zM728 675l-254 -338l254 -337h-166l-254 337l254 338h166z" />
    <glyph glyph-name="registered" unicode="&#xae;" horiz-adv-x="732" 
d="M405 278l63 -109h-76l-59 101h-58l20 67h72c13 0 25 11 25 25v53c0 14 -12 25 -25 25h-118v-271h-66v337h185c49 0 89 -39 90 -88v0v-2v-56v-1v0c-1 -36 -22 -67 -53 -81zM637 337c0 -85 -33 -165 -94 -225c-60 -60 -140 -93 -225 -93s-165 33 -225 93s-93 140 -93 225
s33 165 93 226c60 60 140 93 225 93s165 -33 225 -93c61 -61 94 -141 94 -226zM570 337c0 139 -113 253 -252 253s-252 -114 -252 -253s113 -252 252 -252s252 113 252 252z" />
    <glyph glyph-name="degree" unicode="&#xb0;" horiz-adv-x="405" 
d="M155 415c-86 0 -155 69 -155 155c0 85 69 155 155 155c85 0 155 -70 155 -155c0 -86 -70 -155 -155 -155zM155 625c-30 0 -55 -25 -55 -55s25 -55 55 -55s55 25 55 55s-25 55 -55 55z" />
    <glyph glyph-name="plusminus" unicode="&#xb1;" horiz-adv-x="678" 
d="M583 469v-132h-226v-225h-132v225h-225v132h225v226h132v-226h226zM0 31h583v-132h-583v132z" />
    <glyph glyph-name="guillemotright" unicode="&#xbb;" horiz-adv-x="823" 
d="M562 337l-254 338h166l254 -338l-254 -337h-166zM254 337l-254 338h166l254 -338l-254 -337h-166z" />
    <glyph glyph-name="questiondown" unicode="&#xbf;" horiz-adv-x="549" 
d="M0 224c0 99 81 180 180 180h56v179h132v-312h-186c-27 0 -50 -22 -50 -50v-39c0 -27 23 -50 50 -50h257l40 -132h-299c-99 0 -180 81 -180 180v44zM236 750h132v-124l-132 40v84z" />
    <glyph glyph-name="Agrave" unicode="&#xc0;" horiz-adv-x="645" 
d="M346 726h-100l-185 185h188zM550 495c0 99 -81 180 -180 180h-190c-99 0 -180 -81 -180 -180v-495h132v492c0 28 23 50 50 50h185c28 0 50 -22 50 -50v-156h-195l-40 -133h235v-203h133v495z" />
    <glyph glyph-name="Aacute" unicode="&#xc1;" horiz-adv-x="645" 
d="M285 726h-100l97 185h188zM550 495c0 99 -81 180 -180 180h-190c-99 0 -180 -81 -180 -180v-495h132v492c0 28 23 50 50 50h185c28 0 50 -22 50 -50v-156h-195l-40 -133h235v-203h133v495z" />
    <glyph glyph-name="Acircumflex" unicode="&#xc2;" horiz-adv-x="645" 
d="M479 726h-168l-37 47l-37 -47h-169l140 178h132zM550 495v-495h-133v203h-235l40 133h195v156c0 28 -22 50 -50 50h-185c-27 0 -50 -22 -50 -50v-492h-132v495c0 99 81 180 180 180h190c99 0 180 -81 180 -180z" />
    <glyph glyph-name="Atilde" unicode="&#xc3;" horiz-adv-x="645" 
d="M454 788l-48 -31c-27 -18 -61 -24 -93 -18l-111 23l-56 -36l-54 84l47 30c28 18 61 25 93 18l111 -23l57 36zM550 495v-495h-133v203h-235l40 133h195v156c0 28 -22 50 -50 50h-185c-27 0 -50 -22 -50 -50v-492h-132v495c0 99 81 180 180 180h190c99 0 180 -81 180 -180z
" />
    <glyph glyph-name="Adieresis" unicode="&#xc4;" horiz-adv-x="645" 
d="M242 726h-132v133h132v-133zM440 726h-132v133h132v-133zM550 495c0 99 -81 180 -180 180h-190c-99 0 -180 -81 -180 -180v-495h132v492c0 28 23 50 50 50h185c28 0 50 -22 50 -50v-156h-195l-40 -133h235v-203h133v495z" />
    <glyph glyph-name="Aring" unicode="&#xc5;" horiz-adv-x="645" 
d="M278 706c-61 0 -111 50 -111 111s50 111 111 111s111 -50 111 -111s-50 -111 -111 -111zM278 848c-17 0 -31 -14 -31 -31s14 -31 31 -31s31 14 31 31s-14 31 -31 31zM550 495v-495h-133v203h-235l40 133h195v156c0 28 -22 50 -50 50h-185c-27 0 -50 -22 -50 -50v-492
h-132v495c0 99 81 180 180 180h190c99 0 180 -81 180 -180z" />
    <glyph glyph-name="AE" unicode="&#xc6;" horiz-adv-x="982" 
d="M616 404h271v-133h-337v-89c0 -27 22 -50 50 -50h287v-132h-290c-16 0 -32 2 -47 6v-6h-133v203h-235l40 133h195v156c0 28 -22 50 -50 50h-185c-27 0 -50 -22 -50 -50v-492h-132v495c0 99 81 180 180 180h190c43 0 83 -15 114 -41c31 26 70 41 113 41h290l-39 -133h-248
c-28 0 -50 -22 -50 -50v-155z" />
    <glyph glyph-name="Ccedilla" unicode="&#xc7;" horiz-adv-x="560" 
d="M132 182c0 -27 23 -50 50 -50h298v-132h-155l-11 -35c32 -24 53 -61 53 -104c0 -69 -55 -125 -123 -129h-7c-26 0 -50 7 -70 20l26 86c8 -16 25 -27 44 -27c14 0 27 6 36 16c9 9 14 21 14 34c0 3 0 6 -1 9c-4 23 -25 41 -49 41c-9 0 -17 -2 -24 -6l26 86l3 9h-62
c-99 0 -180 81 -180 180v315c0 99 81 180 180 180h300l-40 -133h-258c-27 0 -50 -22 -50 -50v-310z" />
    <glyph glyph-name="Egrave" unicode="&#xc8;" horiz-adv-x="565" 
d="M346 726h-100l-185 185h188zM199 404l-67 -67v155c0 28 23 50 50 50h248l40 133h-290c-99 0 -180 -81 -180 -180v-315c0 -99 81 -180 180 -180h290v132h-288c-27 0 -50 23 -50 50v89h338v133h-271z" />
    <glyph glyph-name="Eacute" unicode="&#xc9;" horiz-adv-x="565" 
d="M285 726h-100l97 185h188zM199 404l-67 -67v155c0 28 23 50 50 50h248l40 133h-290c-99 0 -180 -81 -180 -180v-315c0 -99 81 -180 180 -180h290v132h-288c-27 0 -50 23 -50 50v89h338v133h-271z" />
    <glyph glyph-name="Ecircumflex" unicode="&#xca;" horiz-adv-x="565" 
d="M470 726h-168l-37 47l-37 -47h-169l140 178h132zM199 404h271v-133h-338v-89c0 -27 23 -50 50 -50h288v-132h-290c-99 0 -180 81 -180 180v315c0 99 81 180 180 180h290l-40 -133h-248c-27 0 -50 -22 -50 -50v-155z" />
    <glyph glyph-name="Edieresis" unicode="&#xcb;" horiz-adv-x="565" 
d="M202 726h-132v133h132v-133zM400 726h-132v133h132v-133zM199 404l-67 -67v155c0 28 23 50 50 50h248l40 133h-290c-99 0 -180 -81 -180 -180v-315c0 -99 81 -180 180 -180h290v132h-288c-27 0 -50 23 -50 50v89h338v133h-271z" />
    <glyph glyph-name="Igrave" unicode="&#xcc;" horiz-adv-x="229" 
d="M134 726h-100l-185 185h188zM132 0h-132v675h132v-675z" />
    <glyph glyph-name="Iacute" unicode="&#xcd;" horiz-adv-x="232" 
d="M100 726h-100l97 185h188zM132 0h-132v675h132v-675z" />
    <glyph glyph-name="Icircumflex" unicode="&#xce;" horiz-adv-x="232" 
d="M273 726h-168l-37 47l-37 -47h-169l140 178h132zM132 0h-132v675h132v-675z" />
    <glyph glyph-name="Idieresis" unicode="&#xcf;" horiz-adv-x="232" 
d="M33 726h-132v133h132v-133zM231 726h-132v133h132v-133zM132 0h-132v675h132v-675z" />
    <glyph glyph-name="Ntilde" unicode="&#xd1;" horiz-adv-x="615" 
d="M441 788l-48 -31c-27 -18 -61 -24 -93 -18l-111 23l-56 -36l-54 84l47 30c28 18 61 25 93 18l111 -23l57 36zM520 37v0v-37h-133v0v0v0l-255 420v0v-420h-132v675h132v0v0v0l255 -420v420h133v-638z" />
    <glyph glyph-name="Ograve" unicode="&#xd2;" 
d="M346 726h-100l-185 185h188zM350 675c99 0 180 -81 180 -180v-315c0 -99 -81 -180 -180 -180h-170c-99 0 -180 81 -180 180v315c0 99 81 180 180 180h170zM397 182v310c0 28 -22 50 -50 50h-165c-27 0 -50 -22 -50 -50v-310c0 -27 23 -50 50 -50h165c28 0 50 23 50 50z
" />
    <glyph glyph-name="Oacute" unicode="&#xd3;" 
d="M285 726h-100l97 185h188zM350 675c99 0 180 -81 180 -180v-315c0 -99 -81 -180 -180 -180h-170c-99 0 -180 81 -180 180v315c0 99 81 180 180 180h170zM397 182v310c0 28 -22 50 -50 50h-165c-27 0 -50 -22 -50 -50v-310c0 -27 23 -50 50 -50h165c28 0 50 23 50 50z" />
    <glyph glyph-name="Ocircumflex" unicode="&#xd4;" 
d="M470 726h-168l-37 47l-37 -47h-169l140 178h132zM350 675c99 0 180 -81 180 -180v-315c0 -99 -81 -180 -180 -180h-170c-99 0 -180 81 -180 180v315c0 99 81 180 180 180h170zM397 182v310c0 28 -22 50 -50 50h-165c-27 0 -50 -22 -50 -50v-310c0 -27 23 -50 50 -50h165
c28 0 50 23 50 50z" />
    <glyph glyph-name="Otilde" unicode="&#xd5;" 
d="M445 788l-48 -31c-27 -18 -61 -24 -93 -18l-111 23l-56 -36l-54 84l47 30c28 18 61 25 93 18l111 -23l57 36zM350 675c99 0 180 -81 180 -180v-315c0 -99 -81 -180 -180 -180h-170c-99 0 -180 81 -180 180v315c0 99 81 180 180 180h170zM397 182v310c0 28 -22 50 -50 50
h-165c-27 0 -50 -22 -50 -50v-310c0 -27 23 -50 50 -50h165c28 0 50 23 50 50z" />
    <glyph glyph-name="Odieresis" unicode="&#xd6;" 
d="M232 726h-132v133h132v-133zM430 726h-132v133h132v-133zM350 675c99 0 180 -81 180 -180v-315c0 -99 -81 -180 -180 -180h-170c-99 0 -180 81 -180 180v315c0 99 81 180 180 180h170zM397 182v310c0 28 -22 50 -50 50h-165c-27 0 -50 -22 -50 -50v-310
c0 -27 23 -50 50 -50h165c28 0 50 23 50 50z" />
    <glyph glyph-name="multiply" unicode="&#xd7;" horiz-adv-x="601" 
d="M506 451l-160 -160l160 -159l-94 -93l-159 159l-160 -159l-93 93l159 159l-159 160l93 93l160 -159l159 159z" />
    <glyph glyph-name="Oslash" unicode="&#xd8;" 
d="M508 581c14 -25 22 -55 22 -86v-315c0 -99 -81 -180 -180 -180h-170c-19 0 -38 3 -55 9c-44 14 -81 45 -103 85c-14 25 -22 55 -22 86v315c0 99 81 180 180 180h170c19 0 38 -3 55 -9c44 -14 81 -45 103 -85zM132 259l190 283h-140c-27 0 -50 -22 -50 -50v-233zM397 182
v234l-190 -284h140c28 0 50 23 50 50z" />
    <glyph glyph-name="Ugrave" unicode="&#xd9;" horiz-adv-x="595" 
d="M346 726h-100l-185 185h188zM500 675h-133v-493c0 -27 -22 -50 -50 -50h-135c-27 0 -50 23 -50 50v493h-132v-495c0 -99 81 -180 180 -180h140c99 0 180 81 180 180v495z" />
    <glyph glyph-name="Uacute" unicode="&#xda;" horiz-adv-x="595" 
d="M285 726h-100l97 185h188zM500 675h-133v-493c0 -27 -22 -50 -50 -50h-135c-27 0 -50 23 -50 50v493h-132v-495c0 -99 81 -180 180 -180h140c99 0 180 81 180 180v495z" />
    <glyph glyph-name="Ucircumflex" unicode="&#xdb;" horiz-adv-x="595" 
d="M470 726h-168l-37 47l-37 -47h-169l140 178h132zM500 675v-495c0 -99 -81 -180 -180 -180h-140c-99 0 -180 81 -180 180v495h132v-493c0 -27 23 -50 50 -50h135c28 0 50 23 50 50v493h133z" />
    <glyph glyph-name="Udieresis" unicode="&#xdc;" horiz-adv-x="595" 
d="M232 726h-132v133h132v-133zM430 726h-132v133h132v-133zM500 675h-133v-493c0 -27 -22 -50 -50 -50h-135c-27 0 -50 23 -50 50v493h-132v-495c0 -99 81 -180 180 -180h140c99 0 180 81 180 180v495z" />
    <glyph glyph-name="Yacute" unicode="&#xdd;" horiz-adv-x="611" 
d="M300 726h-100l97 185h188zM561 675h-159l-147 -218l-146 218h-159l181 -271h89l-31 -46v-358h133v317z" />
    <glyph glyph-name="germandbls" unicode="&#xdf;" horiz-adv-x="645" 
d="M550 224v-44c0 -99 -81 -180 -180 -180h-148v132h145c28 0 50 23 50 50v39c0 28 -22 50 -50 50h-142l-40 133h135c28 0 50 22 50 50v38c0 28 -22 50 -50 50h-138c-27 0 -50 -22 -50 -50v-492h-132v495c0 99 81 180 180 180h143c99 0 180 -81 180 -180v-22
c0 -37 -11 -73 -28 -103c45 -32 75 -86 75 -146z" />
    <glyph glyph-name="agrave" unicode="&#xe0;" 
d="M351 634h-100l-185 185h188zM530 450c0 74 -59 133 -133 133h-304l-40 -133h318c15 0 26 -11 26 -26v-292h-238c-15 0 -27 12 -27 27v40c0 14 12 26 27 26h189l-39 133h-177c-73 0 -132 -60 -132 -133v-93c0 -73 59 -132 132 -132h199l66 66v-66h133v450z" />
    <glyph glyph-name="aacute" unicode="&#xe1;" 
d="M310 634h-100l97 185h188zM530 450c0 74 -59 133 -133 133h-304l-40 -133h318c15 0 26 -11 26 -26v-292h-238c-15 0 -27 12 -27 27v40c0 14 12 26 27 26h189l-39 133h-177c-73 0 -132 -60 -132 -133v-93c0 -73 59 -132 132 -132h199l66 66v-66h133v450z" />
    <glyph glyph-name="acircumflex" unicode="&#xe2;" 
d="M470 634h-168l-37 47l-37 -47h-169l140 178h132zM530 450v-450h-133v66l-66 -66h-199c-73 0 -132 59 -132 132v93c0 73 59 133 132 133h177l39 -133h-189c-15 0 -27 -12 -27 -26v-40c0 -15 12 -27 27 -27h238v292c0 15 -11 26 -26 26h-318l40 133h304
c74 0 133 -59 133 -133z" />
    <glyph glyph-name="atilde" unicode="&#xe3;" 
d="M463 696l-48 -31c-27 -18 -61 -24 -93 -18l-111 23l-56 -36l-54 84l47 30c28 18 61 25 93 18l111 -23l57 36zM530 450v-450h-133v66l-66 -66h-199c-73 0 -132 59 -132 132v93c0 73 59 133 132 133h177l39 -133h-189c-15 0 -27 -12 -27 -26v-40c0 -15 12 -27 27 -27h238
v292c0 15 -11 26 -26 26h-318l40 133h304c74 0 133 -59 133 -133z" />
    <glyph glyph-name="adieresis" unicode="&#xe4;" 
d="M232 634h-132v133h132v-133zM430 634h-132v133h132v-133zM530 450c0 74 -59 133 -133 133h-304l-40 -133h318c15 0 26 -11 26 -26v-292h-238c-15 0 -27 12 -27 27v40c0 14 12 26 27 26h189l-39 133h-177c-73 0 -132 -60 -132 -133v-93c0 -73 59 -132 132 -132h199l66 66
v-66h133v450z" />
    <glyph glyph-name="aring" unicode="&#xe5;" 
d="M286 618c-61 0 -111 50 -111 111s50 111 111 111s111 -50 111 -111s-50 -111 -111 -111zM286 760c-17 0 -31 -14 -31 -31s14 -31 31 -31s31 14 31 31s-14 31 -31 31zM530 450v-450h-133v66l-66 -66h-199c-73 0 -132 59 -132 132v93c0 73 59 133 132 133h177l39 -133h-189
c-15 0 -27 -12 -27 -26v-40c0 -15 12 -27 27 -27h238v292c0 15 -11 26 -26 26h-318l40 133h304c74 0 133 -59 133 -133z" />
    <glyph glyph-name="ae" unicode="&#xe6;" horiz-adv-x="1022" 
d="M795 358v66c0 15 -12 26 -27 26h-212c-14 0 -26 -11 -26 -26v-265c0 -15 12 -27 26 -27h345l-40 -132h-331c-44 0 -82 21 -106 53c-6 8 -11 16 -15 25l-78 -78h-199c-73 0 -132 59 -132 132v93c0 73 59 133 132 133h177l39 -133h-189c-15 0 -27 -12 -27 -26v-40
c0 -15 12 -27 27 -27h238v292c0 15 -11 26 -26 26h-318l40 133h304c25 0 47 -7 67 -18c19 11 42 18 66 18h265c73 0 132 -59 132 -133v-225h-331l40 133h159z" />
    <glyph glyph-name="ccedilla" unicode="&#xe7;" horiz-adv-x="535" 
d="M132 159c0 -15 12 -27 27 -27h281v-132h-133l-11 -35c32 -24 52 -61 52 -104c0 -69 -54 -125 -122 -129h-7c-26 0 -50 7 -70 20l26 86c8 -16 25 -27 44 -27c14 0 26 6 36 16c8 9 14 21 14 34c0 3 -1 6 -1 9c-5 23 -25 41 -49 41c-9 0 -17 -2 -24 -6l26 86l2 9h-91
c-73 0 -132 59 -132 132v318c0 74 59 133 132 133h308l-40 -133h-241c-15 0 -27 -11 -27 -26v-265z" />
    <glyph glyph-name="egrave" unicode="&#xe8;" 
d="M351 634h-100l-185 185h188zM397 358h-158l-40 -133h331v225c0 74 -59 133 -133 133h-265c-73 0 -132 -59 -132 -133v-318c0 -73 59 -132 132 -132h332l39 132h-344c-15 0 -27 12 -27 27v265c0 15 12 26 27 26h212c15 0 26 -11 26 -26v-66z" />
    <glyph glyph-name="eacute" unicode="&#xe9;" 
d="M310 634h-100l97 185h188zM397 358h-158l-40 -133h331v225c0 74 -59 133 -133 133h-265c-73 0 -132 -59 -132 -133v-318c0 -73 59 -132 132 -132h332l39 132h-344c-15 0 -27 12 -27 27v265c0 15 12 26 27 26h212c15 0 26 -11 26 -26v-66z" />
    <glyph glyph-name="ecircumflex" unicode="&#xea;" 
d="M397 358v66c0 15 -11 26 -26 26h-212c-15 0 -27 -11 -27 -26v-265c0 -15 12 -27 27 -27h344l-39 -132h-332c-73 0 -132 59 -132 132v318c0 74 59 133 132 133h265c74 0 133 -59 133 -133v-225h-331l40 133h158z" />
    <glyph glyph-name="edieresis" unicode="&#xeb;" 
d="M232 634h-132v133h132v-133zM430 634h-132v133h132v-133zM397 358h-158l-40 -133h331v225c0 74 -59 133 -133 133h-265c-73 0 -132 -59 -132 -133v-318c0 -73 59 -132 132 -132h332l39 132h-344c-15 0 -27 12 -27 27v265c0 15 12 26 27 26h212c15 0 26 -11 26 -26v-66z
" />
    <glyph glyph-name="igrave" unicode="&#xec;" horiz-adv-x="228" 
d="M133 634h-100l-185 185h188zM0 0h132v583h-132v-583z" />
    <glyph glyph-name="iacute" unicode="&#xed;" horiz-adv-x="227" 
d="M102 634h-100l97 185h188zM0 0h132v583h-132v-583z" />
    <glyph glyph-name="icircumflex" unicode="&#xee;" horiz-adv-x="244" 
d="M274 634h-168l-37 47l-37 -47h-169l140 178h132zM132 0h-132v583h132v-583z" />
    <glyph glyph-name="idieresis" unicode="&#xef;" horiz-adv-x="241" 
d="M33 634h-132v133h132v-133zM231 634h-132v133h132v-133zM0 0h132v583h-132v-583z" />
    <glyph glyph-name="ntilde" unicode="&#xf1;" horiz-adv-x="595" 
d="M431 696l-48 -31c-27 -18 -61 -24 -93 -18l-111 23l-56 -36l-54 84l47 30c28 18 61 25 93 18l111 -23l57 36zM500 450v-450h-133v424c0 15 -11 26 -26 26h-209v-450h-132v583h132v-66l67 66h168c74 0 133 -59 133 -133z" />
    <glyph glyph-name="ograve" unicode="&#xf2;" 
d="M351 634h-100l-185 185h188zM397 583c74 0 133 -59 133 -133v-318c0 -73 -59 -132 -133 -132h-265c-73 0 -132 59 -132 132v318c0 74 59 133 132 133h265zM397 159v265c0 15 -11 26 -26 26h-212c-15 0 -27 -11 -27 -26v-265c0 -15 12 -27 27 -27h212c15 0 26 12 26 27z
" />
    <glyph glyph-name="oacute" unicode="&#xf3;" 
d="M310 634h-100l97 185h188zM397 583c74 0 133 -59 133 -133v-318c0 -73 -59 -132 -133 -132h-265c-73 0 -132 59 -132 132v318c0 74 59 133 132 133h265zM397 159v265c0 15 -11 26 -26 26h-212c-15 0 -27 -11 -27 -26v-265c0 -15 12 -27 27 -27h212c15 0 26 12 26 27z" />
    <glyph glyph-name="ocircumflex" unicode="&#xf4;" 
d="M470 634h-168l-37 47l-37 -47h-169l140 178h132zM397 583c74 0 133 -59 133 -133v-318c0 -73 -59 -132 -133 -132h-265c-73 0 -132 59 -132 132v318c0 74 59 133 132 133h265zM397 159v265c0 15 -11 26 -26 26h-212c-15 0 -27 -11 -27 -26v-265c0 -15 12 -27 27 -27h212
c15 0 26 12 26 27z" />
    <glyph glyph-name="otilde" unicode="&#xf5;" 
d="M387 779l54 -83l-48 -31c-27 -18 -61 -24 -93 -18l-111 23l-56 -36l-54 84l47 30c28 18 61 25 93 18l111 -23zM397 583c74 0 133 -59 133 -133v-318c0 -73 -59 -132 -133 -132h-265c-73 0 -132 59 -132 132v318c0 74 59 133 132 133h265zM397 159v265c0 15 -11 26 -26 26
h-212c-15 0 -27 -11 -27 -26v-265c0 -15 12 -27 27 -27h212c15 0 26 12 26 27z" />
    <glyph glyph-name="odieresis" unicode="&#xf6;" 
d="M232 634h-132v133h132v-133zM430 634h-132v133h132v-133zM397 583c74 0 133 -59 133 -133v-318c0 -73 -59 -132 -133 -132h-265c-73 0 -132 59 -132 132v318c0 74 59 133 132 133h265zM397 159v265c0 15 -11 26 -26 26h-212c-15 0 -27 -11 -27 -26v-265
c0 -15 12 -27 27 -27h212c15 0 26 12 26 27z" />
    <glyph glyph-name="divide" unicode="&#xf7;" horiz-adv-x="678" 
d="M225 0v132h133v-132h-133zM358 583v-133h-133v133h133zM0 357h583v-132h-583v132z" />
    <glyph glyph-name="oslash" unicode="&#xf8;" 
d="M504 529c16 -22 26 -49 26 -79v-318c0 -73 -59 -132 -133 -132h-265c-43 0 -82 21 -106 53c-16 23 -26 50 -26 79v318c0 74 59 133 132 133h265c44 0 83 -21 107 -54zM132 424v-211l160 237h-133c-15 0 -27 -11 -27 -26zM397 159v211l-159 -238h133c15 0 26 12 26 27z
" />
    <glyph glyph-name="ugrave" unicode="&#xf9;" horiz-adv-x="595" 
d="M351 634h-100l-185 185h188zM367 583h133v-451c0 -73 -59 -132 -133 -132h-235c-73 0 -132 59 -132 132v451h132v-424c0 -15 12 -27 27 -27h182c15 0 26 12 26 27v424z" />
    <glyph glyph-name="uacute" unicode="&#xfa;" horiz-adv-x="595" 
d="M310 634h-100l97 185h188zM367 583h133v-451c0 -73 -59 -132 -133 -132h-235c-73 0 -132 59 -132 132v451h132v-424c0 -15 12 -27 27 -27h182c15 0 26 12 26 27v424z" />
    <glyph glyph-name="ucircumflex" unicode="&#xfb;" horiz-adv-x="595" 
d="M458 634h-168l-37 47l-37 -47h-169l140 178h132zM367 583h133v-451c0 -73 -59 -132 -133 -132h-235c-73 0 -132 59 -132 132v451h132v-424c0 -15 12 -27 27 -27h182c15 0 26 12 26 27v424z" />
    <glyph glyph-name="udieresis" unicode="&#xfc;" horiz-adv-x="595" 
d="M217 634h-132v133h132v-133zM415 634h-132v133h132v-133zM367 583h133v-451c0 -73 -59 -132 -133 -132h-235c-73 0 -132 59 -132 132v451h132v-424c0 -15 12 -27 27 -27h182c15 0 26 12 26 27v424z" />
    <glyph glyph-name="yacute" unicode="&#xfd;" horiz-adv-x="560" 
d="M290 634h-100l97 185h188zM510 583h-138l-137 -456l-137 456h-138l175 -583h62l-50 -167h138z" />
    <glyph glyph-name="ydieresis" unicode="&#xff;" horiz-adv-x="560" 
d="M204 634h-132v133h132v-133zM402 634h-132v133h132v-133zM510 583h-138l-137 -456l-137 456h-138l175 -583h62l-50 -167h138z" />
    <glyph glyph-name="OE" unicode="&#x152;" horiz-adv-x="962" 
d="M530 337l66 67h271v-133h-337v-89c0 -27 22 -50 50 -50h287v-132h-290c-43 0 -82 15 -113 40c-31 -25 -71 -40 -114 -40h-170c-99 0 -180 81 -180 180v315c0 99 81 180 180 180h170c43 0 83 -15 114 -41c31 26 70 41 113 41h290l-39 -133h-248c-28 0 -50 -22 -50 -50
v-155zM397 182v310c0 28 -22 50 -50 50h-165c-27 0 -50 -22 -50 -50v-310c0 -27 23 -50 50 -50h165c28 0 50 23 50 50z" />
    <glyph glyph-name="oe" unicode="&#x153;" horiz-adv-x="1022" 
d="M636 358h159v66c0 15 -12 26 -27 26h-212c-14 0 -26 -11 -26 -26v-265c0 -15 12 -27 26 -27h345l-40 -132h-331c-24 0 -47 6 -66 18c-20 -12 -42 -18 -67 -18h-265c-73 0 -132 59 -132 132v318c0 74 59 133 132 133h265c25 0 47 -6 67 -18c19 12 42 18 66 18h265
c73 0 132 -59 132 -133v-225h-331zM397 159v265c0 15 -11 26 -26 26h-212c-15 0 -27 -11 -27 -26v-265c0 -15 12 -27 27 -27h212c15 0 26 12 26 27z" />
    <glyph glyph-name="Scaron" unicode="&#x160;" horiz-adv-x="620" 
d="M501 904l-139 -178h-132l-140 178h169l37 -47l37 47h168zM550 224v-44c0 -99 -81 -180 -180 -180h-370l40 132h327c28 0 50 23 50 50v39c0 28 -22 50 -50 50h-187c-99 0 -180 81 -180 180v44c0 99 81 180 180 180h320l-40 -133h-278c-27 0 -50 -22 -50 -50v-38
c0 -28 23 -50 50 -50h188c99 0 180 -81 180 -180z" />
    <glyph glyph-name="scaron" unicode="&#x161;" 
d="M465 812l-139 -178h-132l-140 178h169l37 -47l37 47h168zM530 225v-93c0 -73 -59 -132 -133 -132h-397l40 132h331c15 0 26 12 26 27v40c0 14 -11 26 -26 26h-239c-73 0 -132 60 -132 133v92c0 74 59 133 132 133h358l-40 -133h-291c-15 0 -27 -11 -27 -26v-40
c0 -14 12 -26 27 -26h238c74 0 133 -60 133 -133z" />
    <glyph glyph-name="Ydieresis" unicode="&#x178;" horiz-adv-x="611" 
d="M225 726h-132v133h132v-133zM423 726h-132v133h132v-133zM561 675h-159l-147 -218l-146 218h-159l181 -271h89l-31 -46v-358h133v317z" />
    <glyph glyph-name="Zcaron" unicode="&#x17d;" 
d="M496 904l-139 -178h-132l-140 178h169l37 -47l37 47h168zM530 542l-355 -410h355v-132h-530v132v0l355 410h-355l40 133h490v-133v0z" />
    <glyph glyph-name="zcaron" unicode="&#x17e;" horiz-adv-x="555" 
d="M454 812l-139 -178h-132l-140 178h169l37 -47l37 47h168zM460 450l-283 -318h283v-132h-460v132v0l283 318h-283l40 133h420v-128v-5v0z" />
    <glyph glyph-name="circumflex" unicode="&#x2c6;" horiz-adv-x="506" 
d="M272 812l139 -178h-168l-37 47l-37 -47h-169l140 178h132z" />
    <glyph glyph-name="caron" unicode="&#x2c7;" horiz-adv-x="509" 
d="M414 904l-139 -178h-132l-140 178h169l37 -47l37 47h168z" />
    <glyph glyph-name="ring" unicode="&#x2da;" horiz-adv-x="315" 
d="M109 706c-61 0 -111 50 -111 111s50 111 111 111s111 -50 111 -111s-50 -111 -111 -111zM109 848c-17 0 -31 -14 -31 -31s14 -31 31 -31s31 14 31 31s-14 31 -31 31z" />
    <glyph glyph-name="tilde" unicode="&#x2dc;" horiz-adv-x="460" 
d="M311 779l54 -83l-48 -31c-27 -18 -61 -24 -93 -18l-111 23l-56 -36l-54 84l47 30c28 18 61 25 93 18l111 -23z" />
    <glyph glyph-name="endash" unicode="&#x2013;" horiz-adv-x="537" 
d="M0 357h442v-132h-442v132z" />
    <glyph glyph-name="emdash" unicode="&#x2014;" 
d="M0 357h530v-132h-530v132z" />
    <glyph glyph-name="quoteleft" unicode="&#x2018;" horiz-adv-x="227" 
d="M0 543v32c0 34 4 68 12 100c9 37 23 72 42 106l62 -32c-13 -24 -24 -48 -31 -74h47v-132h-132z" />
    <glyph glyph-name="quoteright" unicode="&#x2019;" horiz-adv-x="227" 
d="M132 781v-32c0 -34 -4 -68 -12 -100c-9 -37 -23 -72 -42 -106l-62 32c13 24 24 48 31 74h-47v132h132z" />
    <glyph glyph-name="quotesinglbase" unicode="&#x201a;" horiz-adv-x="227" 
d="M0 132h132v-31c0 -35 -4 -68 -12 -101c-9 -37 -23 -72 -42 -105l-62 32c13 23 24 48 32 73h-48v132z" />
    <glyph glyph-name="quotedblleft" unicode="&#x201c;" horiz-adv-x="403" 
d="M0 543v32c0 34 4 68 12 100c9 37 23 72 42 106l62 -32c-13 -24 -24 -48 -31 -74h47v-132h-132zM176 543v32c0 34 4 68 12 100c9 37 23 72 42 106l62 -32c-13 -24 -24 -48 -31 -74h47v-132h-132z" />
    <glyph glyph-name="quotedblright" unicode="&#x201d;" horiz-adv-x="403" 
d="M176 781h132v-32c0 -34 -4 -68 -12 -100c-9 -37 -23 -72 -42 -106l-62 32c13 24 24 48 31 74h-47v132zM0 781h132v-32c0 -34 -4 -68 -12 -100c-9 -37 -23 -72 -42 -106l-62 32c13 24 24 48 31 74h-47v132z" />
    <glyph glyph-name="quotedblbase" unicode="&#x201e;" horiz-adv-x="398" 
d="M0 132h132v-31c0 -35 -4 -68 -12 -101c-9 -37 -23 -72 -42 -105l-62 32c13 23 24 48 32 73h-48v132zM171 132h132v-31c0 -35 -4 -68 -12 -101c-9 -37 -23 -72 -42 -105l-62 32c13 23 24 48 32 73h-48v132z" />
    <glyph glyph-name="bullet" unicode="&#x2022;" horiz-adv-x="555" 
d="M460 337c0 -127 -103 -230 -230 -230s-230 103 -230 230s103 230 230 230s230 -103 230 -230z" />
    <glyph glyph-name="ellipsis" unicode="&#x2026;" horiz-adv-x="691" 
d="M0 132h132v-132h-132v132zM232 132h132v-132h-132v132zM464 132h132v-132h-132v132z" />
    <glyph glyph-name="perthousand" unicode="&#x2030;" horiz-adv-x="1086" 
d="M486 675h120l-451 -675h-121zM310 520c0 -86 -69 -156 -155 -156c-85 0 -155 70 -155 156c0 85 70 155 155 155c86 0 155 -70 155 -155zM210 520c0 30 -24 55 -55 55c-30 0 -55 -25 -55 -55c0 -31 25 -56 55 -56c31 0 55 25 55 56zM641 155c0 -85 -70 -155 -156 -155
c-85 0 -155 70 -155 155c0 86 70 155 155 155c86 0 156 -69 156 -155zM541 155c0 31 -25 55 -56 55c-30 0 -55 -24 -55 -55c0 -30 25 -55 55 -55c31 0 56 25 56 55zM991 155c0 -85 -70 -155 -156 -155c-85 0 -155 70 -155 155c0 86 70 155 155 155c86 0 156 -69 156 -155z
M891 155c0 31 -25 55 -56 55c-30 0 -55 -24 -55 -55c0 -30 25 -55 55 -55c31 0 56 25 56 55z" />
    <glyph glyph-name="guilsinglleft" unicode="&#x2039;" horiz-adv-x="515" 
d="M420 675l-254 -338l254 -337h-166l-254 337l254 338h166z" />
    <glyph glyph-name="guilsinglright" unicode="&#x203a;" horiz-adv-x="515" 
d="M0 675h166l254 -338l-254 -337h-166l254 337z" />
    <glyph glyph-name="fraction" unicode="&#x2044;" horiz-adv-x="661" 
d="M0 0l452 675h159l-452 -675h-159z" />
    <glyph glyph-name="Euro" unicode="&#x20ac;" horiz-adv-x="717" 
d="M309 132h273l39 -131c-6 -1 -11 -1 -17 -1h-298c-99 0 -180 81 -180 180v38h-126l30 101h96v37h-126l30 101h96v38c0 99 81 180 180 180h298c6 0 12 0 18 -1l-39 -132h-274c-28 0 -50 -22 -50 -50v-35h290l-31 -101h-259v-37h252l-30 -101h-222v-36c0 -27 22 -50 50 -50z
" />
    <glyph glyph-name="minus" unicode="&#x2212;" horiz-adv-x="833" 
d="M0 357h583v-132h-583v132z" />
    </font>
</defs>
</svg>
